{
  "accessors": [
    {
      "bufferView": 2,
      "componentType": 5126,
      "count": 701,
      "max": [
        23.185543060302734,
        16.709674835205078,
        49.44036102294922
      ],
      "min": [
        -22.49073028564453,
        -22.44524383544922,
        44.90911865234375
      ],
      "type": "VEC3"
    },
    {
      "bufferView": 2,
      "byteOffset": 8412,
      "componentType": 5126,
      "count": 701,
      "max": [
        0.9996387362480164,
        0.9952666759490967,
        0.9999997615814209
      ],
      "min": [
        -0.9998106360435486,
        -0.9950199127197266,
        -1.0
      ],
      "type": "VEC3"
    },
    {
      "bufferView": 3,
      "componentType": 5126,
      "count": 701,
      "max": [
        0.9999954700469971,
        0.4414425492286682,
        0.9992923736572266,
        1.0
      ],
      "min": [
        -1.0,
        -0.47509124875068665,
        -0.9990594983100891,
        1.0
      ],
      "type": "VEC4"
    },
    {
      "bufferView": 1,
      "componentType": 5126,
      "count": 701,
      "max": [
        0.9999070167541504,
        0.8631139993667603
      ],
      "min": [
        9.300000237999484e-05,
        9.300000237999484e-05
      ],
      "type": "VEC2"
    },
    {
      "bufferView": 0,
      "componentType": 5125,
      "count": 3774,
      "type": "SCALAR"
    },
    {
      "bufferView": 2,
      "byteOffset": 16824,
      "componentType": 5126,
      "count": 12225,
      "max": [
        24.537296295166016,
        24.345457077026367,
        92.88054656982422
      ],
      "min": [
        -24.136959075927734,
        -24.5289306640625,
        -0.08706600219011307
      ],
      "type": "VEC3"
    },
    {
      "bufferView": 2,
      "byteOffset": 163524,
      "componentType": 5126,
      "count": 12225,
      "max": [
        1.0,
        1.0,
        1.0
      ],
      "min": [
        -1.0,
        -1.0,
        -1.0
      ],
      "type": "VEC3"
    },
    {
      "bufferView": 3,
      "byteOffset": 11216,
      "componentType": 5126,
      "count": 12225,
      "max": [
        1.0,
        1.0,
        1.0,
        1.0
      ],
      "min": [
        -1.0,
        -1.0,
        -1.0,
        -1.0
      ],
      "type": "VEC4"
    },
    {
      "bufferView": 1,
      "byteOffset": 5608,
      "componentType": 5126,
      "count": 12225,
      "max": [
        0.998013973236084,
        0.9981060028076172
      ],
      "min": [
        0.001892999978736043,
        0.0018899999558925629
      ],
      "type": "VEC2"
    },
    {
      "bufferView": 0,
      "byteOffset": 15096,
      "componentType": 5125,
      "count": 43848,
      "type": "SCALAR"
    }
  ],
  "asset": {
    "extras": {
      "author": "Interiors3D (https://sketchfab.com/Interiors3D)",
      "license": "CC-BY-4.0 (http://creativecommons.org/licenses/by/4.0/)",
      "source": "https://sketchfab.com/3d-models/hpj000-497326f64de749018ae7ae8eacb23b08",
      "title": "HPJ000"
    },
    "generator": "Sketchfab-10.42.0",
    "version": "2.0"
  },
  "bufferViews": [
    {
      "buffer": 0,
      "byteLength": 190488,
      "name": "floatBufferViews",
      "target": 34963
    },
    {
      "buffer": 0,
      "byteLength": 103408,
      "byteOffset": 190488,
      "byteStride": 8,
      "name": "floatBufferViews",
      "target": 34962
    },
    {
      "buffer": 0,
      "byteLength": 310224,
      "byteOffset": 293896,
      "byteStride": 12,
      "name": "floatBufferViews",
      "target": 34962
    },
    {
      "buffer": 0,
      "byteLength": 206816,
      "byteOffset": 604120,
      "byteStride": 16,
      "name": "floatBufferViews",
      "target": 34962
    }
  ],
  "buffers": [
    {
      "byteLength": 810936,
      "uri": "scene.bin"
    }
  ],
  "images": [
    {
      "uri": "textures/fabric_baseColor.jpeg"
    },
    {
      "uri": "textures/fabric_metallicRoughness.png"
    },
    {
      "uri": "textures/fabric_normal.png"
    },
    {
      "uri": "textures/material_baseColor.jpeg"
    },
    {
      "uri": "textures/material_metallicRoughness.png"
    },
    {
      "uri": "textures/material_normal.png"
    }
  ],
  "materials": [
    {
      "doubleSided": true,
      "name": "fabric",
      "normalTexture": {
        "index": 2
      },
      "pbrMetallicRoughness": {
        "baseColorTexture": {
          "index": 0
        },
        "metallicFactor": 0.0,
        "metallicRoughnessTexture": {
          "index": 1
        }
      }
    },
    {
      "doubleSided": true,
      "name": "material",
      "normalTexture": {
        "index": 5
      },
      "pbrMetallicRoughness": {
        "baseColorTexture": {
          "index": 3
        },
        "metallicFactor": 0.0,
        "metallicRoughnessTexture": {
          "index": 4
        }
      }
    }
  ],
  "meshes": [
    {
      "name": "Object_0",
      "primitives": [
        {
          "attributes": {
            "NORMAL": 1,
            "POSITION": 0,
            "TANGENT": 2,
            "TEXCOORD_0": 3
          },
          "indices": 4,
          "material": 0,
          "mode": 4
        }
      ]
    },
    {
      "name": "Object_1",
      "primitives": [
        {
          "attributes": {
            "NORMAL": 6,
            "POSITION": 5,
            "TANGENT": 7,
            "TEXCOORD_0": 8
          },
          "indices": 9,
          "material": 1,
          "mode": 4
        }
      ]
    }
  ],
  "nodes": [
    {
      "children": [
        1
      ],
      "matrix": [
        1.0,
        0.0,
        0.0,
        0.0,
        0.0,
        2.220446049250313e-16,
        -1.0,
        0.0,
        0.0,
        1.0,
        2.220446049250313e-16,
        0.0,
        0.0,
        0.0,
        0.0,
        1.0
      ],
      "name": "Sketchfab_model"
    },
    {
      "children": [
        2,
        3
      ],
      "name": "W06 - HPJ000 - Sketchfab - mesh.obj.cleaner.materialmerger.gles"
    },
    {
      "mesh": 0,
      "name": "Object_2"
    },
    {
      "mesh": 1,
      "name": "Object_3"
    }
  ],
  "samplers": [
    {
      "magFilter": 9729,
      "minFilter": 9987,
      "wrapS": 10497,
      "wrapT": 10497
    }
  ],
  "scene": 0,
  "scenes": [
    {
      "name": "Sketchfab_Scene",
      "nodes": [
        0
      ]
    }
  ],
  "textures": [
    {
      "sampler": 0,
      "source": 0
    },
    {
      "sampler": 0,
      "source": 1
    },
    {
      "sampler": 0,
      "source": 2
    },
    {
      "sampler": 0,
      "source": 3
    },
    {
      "sampler": 0,
      "source": 4
    },
    {
      "sampler": 0,
      "source": 5
    }
  ]
}
